<svg width="128" height="128" viewBox="0 0 128 128" fill="none" xmlns="http://www.w3.org/2000/svg">
  <rect width="128" height="128" rx="24" fill="#2563EB"/>
  <path d="M36 48C36 41.3726 41.3726 36 48 36H80C86.6274 36 92 41.3726 92 48V86C92 92.6274 86.6274 98 80 98H48C41.3726 98 36 92.6274 36 86V48Z" fill="white" fill-opacity="0.96"/>
  <path d="M51 36V31C51 27.6863 53.6863 25 57 25H71C74.3137 25 77 27.6863 77 31V36" stroke="white" stroke-width="8" stroke-linecap="round"/>
  <path d="M50 63L61 74L82 53" stroke="#16A34A" stroke-width="9" stroke-linecap="round" stroke-linejoin="round"/>
  <circle cx="94" cy="34" r="18" fill="#16A34A"/>
  <path d="M87 34H101M94 27V41" stroke="white" stroke-width="5" stroke-linecap="round"/>
</svg>
